# xmcd CD database file
#
# Track frame offsets:
#	150
#	14747
#	36136
#	52375
#	69483
#	84649
#	102585
#	124942
#	139845
#	155177
#	173091
#	189807
#	211506
#	232547
#
# Disc length: 3501 seconds
#
# Revision: 1
# Processed by: cddbd v1.5.2PL0 Copyright (c) Steve Scherf et al.
# Submitted via: CDex 1.79
#
DISCID=c00dab0e
DTITLE=The Mystiqueros - Agave
DYEAR=2010
DGENRE=Country
TTITLE0=Would Not Make It Through
TTITLE1=Good
TTITLE2=Finding My Way To You
TTITLE3=Porcelain Heart
TTITLE4=You've Got A Way
TTITLE5=Anyway You Want Me To
TTITLE6=Miss
TTITLE7=A Place In Your Heart
TTITLE8=Worry
TTITLE9=Silver Cross
TTITLE10=Just Keep Driving
TTITLE11=Looking Glass
TTITLE12=Night Train Rolling By
TTITLE13=Blue Agave
EXTD=YEAR: 2010
EXTT0=
EXTT1=
EXTT2=
EXTT3=
EXTT4=
EXTT5=
EXTT6=
EXTT7=
EXTT8=
EXTT9=
EXTT10=
EXTT11=
EXTT12=
EXTT13=
PLAYORDER=
